<svg width="184" height="40" viewBox="0 0 184 40" fill="none" xmlns="http://www.w3.org/2000/svg">
<path d="M44.9274 15.8095C44.9274 20.2286 42.452 22.1714 37.6251 22.3238C32.3031 22.5143 32.0969 23.3143 32.0969 15.8476C32.0969 8.7619 32.0556 9.6381 37.0063 9.6381C42.5758 9.6381 44.9274 11.8857 44.9274 15.8095ZM53.426 15.8476C53.3848 8.38095 47.8978 4.53333 37.7076 4.53333H17.6987C7.67354 4.60952 0 12.0762 0 19.8095C0.0412556 25.7905 3.63049 29.4857 10.5614 29.4857C16.0484 29.4857 19.4726 26.6286 19.3901 22.8571C19.3901 20.0762 17.6574 18.2857 15.5946 18.2857C13.2843 18.2857 12.2942 19.8857 11.8404 21.2952C11.5103 23.3143 10.8502 24.2286 9.11749 24.2286C7.13722 24.2286 5.98206 22.781 5.98206 20.0381C5.98206 14.4762 9.86009 9.67619 17.6987 9.75238C23.6807 9.75238 23.722 9.6 23.7632 11.8476V31.5048C23.7632 34.0571 23.5982 34.2095 21.1641 34.7048C18.8538 35.0476 18.1112 35.2762 18.1112 37.1429C18.1112 39.1238 18.8951 39.0476 27.5587 39.0476C37.1713 39.0476 37.8314 39.2 37.8314 36.9143C37.8314 35.3905 37.3363 35.1238 34.696 34.781C31.8081 34.3619 32.0969 34.3619 32.0969 29.3333C32.0969 26.4762 31.5605 26.819 37.4601 26.8571C48.5578 26.9333 53.4673 23.0476 53.426 15.8476ZM70.1758 29.6381C70.1758 32.3429 68.3605 34.4381 65.4726 34.4381C63.4099 34.4381 62.2547 33.4476 62.2547 31.4667C62.2547 29.2571 64.07 27.8857 67.3704 27.8857C69.2269 27.8476 70.1758 27.8476 70.1758 29.6381ZM81.9336 34.781C81.9336 33.5619 81.8099 32.9143 80.8197 32.9143H80.6547C80.0359 32.9143 79.8296 33.181 79.0457 33.1429C78.1794 33.1429 77.5193 32.6095 77.5193 31.4286C77.5193 30.0191 78.0556 24.9905 78.0556 21.5619C78.0969 16.0381 74.6726 13.219 67.2879 13.219C63.2861 13.219 59.9857 13.981 57.5928 15.5429C55.8188 16.6476 54.5399 18.2095 54.5399 20.1524C54.5399 22.4762 56.3964 23.4667 58.7892 23.4667C60.8933 23.4667 61.8422 22.4762 62.296 20.8381C62.8323 18.9333 63.7812 18.3619 65.6789 18.3619C68.8143 18.3619 70.217 19.7333 70.2995 22.6286C70.2995 24.8381 70.052 25.1048 69.2682 25.1048C68.3193 25.1048 67.2466 24.6476 63.7399 24.6476C57.6753 24.6476 54.2924 27.7333 54.2924 32.4571C54.2924 36.5333 56.6027 39.8857 62.7085 39.8857C65.6789 39.8857 67.3704 38.8952 68.443 37.7905C69.3507 36.7238 69.5569 35.8857 70.2995 35.8857C71.0009 35.8857 70.9596 36.7238 71.9085 37.8667C73.0224 39.2381 74.2188 39.8095 76.0341 39.8095C79.7471 39.7714 81.9336 36.6857 81.9336 34.781ZM113.618 4.22857C113.618 1.98095 111.803 0 107.801 0C100.54 0 96.0018 7.12381 94.3928 14.3619C94.0215 15.8857 93.9803 16.7619 93.4852 16.7619C92.9489 16.7619 92.9076 16.381 92.8251 15.1619C92.5776 13.2952 91.835 12.6857 90.6798 12.6857C89.1946 12.6857 87.1318 13.3333 85.3991 14.4C83.6251 15.3905 82.1399 16.3048 82.1399 17.5619C82.1399 18.8952 83.7901 18.5905 86.0179 18.781C87.3381 18.9333 87.4619 19.2381 87.4619 20.381C87.4619 22.6667 87.4206 28.4952 87.3381 31.0857C87.2969 33.8286 87.4206 34.0571 85.3166 34.6667C83.4601 35.2 82.9238 35.3905 82.9238 36.6476C82.9238 39.4286 83.8726 39.0476 91.5462 39.0476C100.457 39.0476 100.911 39.3905 100.911 36.3429C100.911 35.2 100.416 35.1238 98.1883 34.6286C95.5892 33.981 95.6305 33.981 95.6305 31.1238V26.9333C95.6305 18.6286 99.096 7.35238 106.068 7.35238C107.388 7.35238 108.09 7.84762 109.286 7.84762C112.257 7.88572 113.577 6.24762 113.618 4.22857ZM120.095 23.0476C120.095 24.2667 119.559 24 113.164 24C109.946 24 109.451 24.2667 109.41 23.5429C109.245 20.3048 111.473 18.1714 114.361 18.1714C117.62 18.1333 120.095 20.4952 120.095 23.0476ZM127.934 24.4571C127.934 17.4095 123.148 13.0667 115.557 13.0667C106.398 13.0667 101.613 19.7333 101.613 26.9714C101.613 34.4381 107.223 39.8476 115.516 39.8476C121.168 39.8476 125.541 37.5238 126.531 33.9048C126.902 32.6857 126.778 31.4286 125.706 31.4286C125.17 31.4286 124.592 31.8095 123.891 32.1143C122.612 32.7238 120.796 33.4095 117.62 33.4095C112.875 33.4095 109.369 31.3143 109.327 29.0286C109.286 28.2667 109.534 28.0381 110.359 28.0381H123.313C127.15 28.0762 127.934 27.581 127.934 24.4571ZM160.608 34.781C158.628 34.1714 158.669 33.9429 158.587 31.2V30.1333C158.587 26.6286 158.917 24.1143 158.917 21.0667C158.917 16.4571 155.286 13.3714 149.717 13.3714C146.375 13.3714 144.312 14.6286 143.157 15.8857C141.796 17.4095 141.796 18.1333 141.094 18.1333C140.393 18.1333 140.64 17.1429 140.64 16.1905C140.64 14.5905 139.361 13.5619 137.051 13.5619C135.525 13.5619 133.957 14.1714 132.43 15.1619C130.409 16.4571 129.584 17.6 129.584 18.6667C129.584 20.3048 130.698 20.6476 132.513 20.6476C134.039 20.6857 134.452 20.8381 134.452 22.2476V30.4381V31.2762C134.452 34.5905 133.874 34.2476 131.935 34.8571C130.285 35.3905 129.79 35.4667 129.79 36.7238C129.79 37.6381 129.831 38.3619 130.45 38.7048C131.399 39.2 133.338 39.1619 139.733 39.1238C143.487 39.1238 144.931 39.1238 144.931 36.4191C144.931 35.2762 144.477 35.3143 143.281 34.819C141.878 34.1714 141.878 34.1714 141.878 31.3143V30.7429V26.5905C141.878 22.9333 143.404 19.581 147.406 19.581C150.047 19.581 150.954 21.1048 150.954 23.7714V30.9714C150.954 33.8286 150.954 34.1333 149.51 34.819C148.273 35.3143 147.86 35.2762 147.86 36.4191C147.86 39.4286 149.304 39.1238 153.141 39.1238C161.557 39.1238 162.795 39.5048 162.795 36.7238C162.836 35.3905 162.341 35.3143 160.608 34.781ZM174.511 30.2476C174.511 28.7619 174.552 26.2857 174.552 24.0381C174.552 20.381 173.81 20.4952 177.482 20.4952C182.35 20.4952 183.587 20.6476 183.67 18.4762C183.711 17.4857 183.876 16.9524 183.876 16.0762C183.876 14.2476 182.721 14.2857 178.926 14.2857C175.419 14.2857 175.171 14.6667 175.171 12.7619C175.171 11.1238 174.552 10.6286 173.604 10.6286C171.582 10.6286 170.551 12.4952 167.704 13.8667C163.537 15.7714 161.97 15.0857 161.97 17.981C161.97 19.6571 162.052 20.2667 164.816 20.2667C166.796 20.2667 166.879 20.0762 166.838 22.819C166.838 26.1333 166.466 28.9905 166.466 31.6571C166.466 36.5714 170.221 39.8857 175.873 39.8857C180.865 39.8857 183.959 37.1429 184 34.2476C184 33.0286 183.587 32.6476 182.845 32.6476C181.772 32.6476 180.411 33.4857 178.142 33.4857C175.584 33.4476 174.511 32.1524 174.511 30.2476Z" fill="#FF9C00"/>
</svg>